<mxfile host="app.diagrams.net" modified="2020-03-15T03:34:57.131Z" agent="Mozilla/5.0 (Windows NT 6.1; WOW64) AppleWebKit/537.36 (KHTML, like Gecko) Chrome/75.0.3770.142 Safari/537.36" etag="yoCavF7dfmrQpzwiXGLH" version="12.8.5" type="github">
  <diagram id="iY2sE6skd7WF5RvVRHLC" name="第 1 页">
    <mxGraphModel dx="868" dy="450" grid="1" gridSize="10" guides="1" tooltips="1" connect="1" arrows="1" fold="1" page="1" pageScale="1" pageWidth="827" pageHeight="1169" math="0" shadow="0">
      <root>
        <mxCell id="0" />
        <mxCell id="1" parent="0" />
        <mxCell id="JlYhUy0kMLDr1YmaYAZP-4" style="edgeStyle=orthogonalEdgeStyle;rounded=0;orthogonalLoop=1;jettySize=auto;html=1;entryX=0.458;entryY=0.167;entryDx=0;entryDy=0;entryPerimeter=0;" edge="1" parent="1" source="JlYhUy0kMLDr1YmaYAZP-2" target="JlYhUy0kMLDr1YmaYAZP-3">
          <mxGeometry relative="1" as="geometry" />
        </mxCell>
        <mxCell id="JlYhUy0kMLDr1YmaYAZP-2" value="" style="shape=umlActor;verticalLabelPosition=bottom;labelBackgroundColor=#ffffff;verticalAlign=top;html=1;outlineConnect=0;" vertex="1" parent="1">
          <mxGeometry x="320" y="40" width="30" height="60" as="geometry" />
        </mxCell>
        <mxCell id="JlYhUy0kMLDr1YmaYAZP-3" value="gateway" style="rounded=0;whiteSpace=wrap;html=1;strokeWidth=4;" vertex="1" parent="1">
          <mxGeometry x="280" y="148" width="120" height="60" as="geometry" />
        </mxCell>
      </root>
    </mxGraphModel>
  </diagram>
</mxfile>
